<?xml version="1.0" encoding="utf-8"?>
<!-- Generator: Adobe Illustrator 16.0.0, SVG Export Plug-In . SVG Version: 6.00 Build 0)  -->
<!DOCTYPE svg PUBLIC "-//W3C//DTD SVG 1.1//EN" "http://www.w3.org/Graphics/SVG/1.1/DTD/svg11.dtd">
<svg version="1.1" id="Layer_1" xmlns="http://www.w3.org/2000/svg" xmlns:xlink="http://www.w3.org/1999/xlink" x="0px" y="0px"
	 width="100px" height="100px" viewBox="0 0 100 100" enable-background="new 0 0 100 100" xml:space="preserve">
<path fill="#FFFFFF" d="M50.316,4.118c-24.837,0-44.972,20.135-44.972,44.972c0,24.838,20.135,44.972,44.972,44.972
	c24.838,0,44.972-20.134,44.972-44.972C95.288,24.253,75.154,4.118,50.316,4.118z M50.316,90.75
	c-23.008,0-41.659-18.652-41.659-41.66c0-23.008,18.651-41.66,41.659-41.66c23.007,0,41.659,18.652,41.659,41.66
	C91.976,72.098,73.323,90.75,50.316,90.75z"/>
<g>
	<g>
		<path fill="#FFFFFF" d="M35.076,26.254h-4.714v7.671H34.7v1.613h-4.338v9.337h-1.796V24.667h6.51V26.254z"/>
		<path fill="#FFFFFF" d="M46.091,43.442c0,0.422-0.136,0.767-0.407,1.033s-0.619,0.401-1.041,0.401h-5.655
			c-0.422,0-0.767-0.134-1.033-0.401c-0.267-0.267-0.401-0.611-0.401-1.033V26.099c0-0.422,0.134-0.767,0.401-1.033
			c0.267-0.267,0.611-0.399,1.033-0.399h5.655c0.422,0,0.77,0.133,1.041,0.399s0.407,0.611,0.407,1.033V43.442z M44.295,43.287
			V26.254H39.35v17.032H44.295z"/>
		<path fill="#FFFFFF" d="M59.313,44.876h-1.692V32.079c0-0.181,0.061-0.711,0.181-1.588l-3.305,12.487h-0.361l-3.307-12.487
			c0.121,0.886,0.181,1.416,0.181,1.588v12.797h-1.69V24.667h1.665l3.281,13.146c0.017,0.069,0.033,0.262,0.052,0.582
			c0-0.129,0.017-0.324,0.051-0.582l3.28-13.146h1.666V44.876z"/>
		<path fill="#FFFFFF" d="M71.077,43.442c0,0.422-0.136,0.767-0.406,1.033c-0.271,0.267-0.618,0.401-1.04,0.401h-5.655
			c-0.422,0-0.767-0.134-1.033-0.401s-0.4-0.611-0.4-1.033V26.099c0-0.422,0.134-0.767,0.4-1.033s0.611-0.399,1.033-0.399h5.655
			c0.422,0,0.769,0.133,1.04,0.399c0.271,0.267,0.406,0.611,0.406,1.033V43.442z M69.283,43.287V26.254h-4.946v17.032H69.283z"/>
	</g>
	<g>
		<path fill="#FFFFFF" d="M35.023,73.514h-6.457V53.305h1.796v18.622h4.661V73.514z"/>
		<path fill="#FFFFFF" d="M47.001,73.514h-1.782l-0.711-4.493h-4.015l-0.711,4.493h-1.731v-0.051l3.604-20.209h1.769L47.001,73.514z
			 M44.275,67.433L42.507,56.48l-1.782,10.952H44.275z"/>
		<path fill="#FFFFFF" d="M59.133,73.514h-1.24l-5.397-14.862v14.862h-1.692V53.305h1.343L57.44,67.91V53.305h1.692V73.514z"/>
		<path fill="#FFFFFF" d="M72.065,69.861c0,1.066-0.351,1.941-1.053,2.627c-0.7,0.684-1.587,1.025-2.653,1.025h-4.623V53.305h4.623
			c1.076,0,1.963,0.342,2.661,1.027c0.697,0.684,1.045,1.56,1.045,2.627V69.861z M70.27,69.68V57.113
			c0-0.663-0.208-1.198-0.625-1.606c-0.417-0.409-0.958-0.614-1.621-0.614h-2.491v17.034h2.388c0.697,0,1.264-0.201,1.699-0.602
			C70.053,70.926,70.27,70.376,70.27,69.68z"/>
	</g>
</g>
</svg>
